<mxfile host="Electron" agent="Mozilla/5.0 (Windows NT 10.0; Win64; x64) AppleWebKit/537.36 (KHTML, like Gecko) draw.io/28.2.5 Chrome/138.0.7204.251 Electron/37.6.1 Safari/537.36" version="28.2.5">
  <diagram name="Page-1" id="st6xLAHiXvBld68DBvkw">
    <mxGraphModel dx="2946" dy="1235" grid="1" gridSize="10" guides="1" tooltips="1" connect="1" arrows="1" fold="1" page="1" pageScale="1" pageWidth="850" pageHeight="1100" math="0" shadow="0">
      <root>
        <mxCell id="0" />
        <mxCell id="1" parent="0" />
        <mxCell id="fDXr2WGKgPIdpTgefnLf-5" style="edgeStyle=orthogonalEdgeStyle;rounded=0;orthogonalLoop=1;jettySize=auto;html=1;entryX=0;entryY=0.5;entryDx=0;entryDy=0;" edge="1" parent="1" source="fDXr2WGKgPIdpTgefnLf-1" target="fDXr2WGKgPIdpTgefnLf-2">
          <mxGeometry relative="1" as="geometry" />
        </mxCell>
        <mxCell id="fDXr2WGKgPIdpTgefnLf-7" style="edgeStyle=orthogonalEdgeStyle;rounded=0;orthogonalLoop=1;jettySize=auto;html=1;entryX=0;entryY=0.5;entryDx=0;entryDy=0;" edge="1" parent="1" source="fDXr2WGKgPIdpTgefnLf-1" target="fDXr2WGKgPIdpTgefnLf-4">
          <mxGeometry relative="1" as="geometry" />
        </mxCell>
        <mxCell id="fDXr2WGKgPIdpTgefnLf-17" style="edgeStyle=orthogonalEdgeStyle;rounded=0;orthogonalLoop=1;jettySize=auto;html=1;entryX=0;entryY=0.5;entryDx=0;entryDy=0;" edge="1" parent="1" source="fDXr2WGKgPIdpTgefnLf-1" target="fDXr2WGKgPIdpTgefnLf-11">
          <mxGeometry relative="1" as="geometry" />
        </mxCell>
        <mxCell id="fDXr2WGKgPIdpTgefnLf-1" value="Player" style="shape=umlActor;verticalLabelPosition=bottom;verticalAlign=top;html=1;outlineConnect=0;" vertex="1" parent="1">
          <mxGeometry x="30" y="230" width="30" height="60" as="geometry" />
        </mxCell>
        <mxCell id="fDXr2WGKgPIdpTgefnLf-2" value="View Songs" style="ellipse;whiteSpace=wrap;html=1;" vertex="1" parent="1">
          <mxGeometry x="210" y="50" width="120" height="80" as="geometry" />
        </mxCell>
        <mxCell id="fDXr2WGKgPIdpTgefnLf-3" value="Select Song" style="ellipse;whiteSpace=wrap;html=1;" vertex="1" parent="1">
          <mxGeometry x="210" y="160" width="120" height="80" as="geometry" />
        </mxCell>
        <mxCell id="fDXr2WGKgPIdpTgefnLf-4" value="Play Level" style="ellipse;whiteSpace=wrap;html=1;" vertex="1" parent="1">
          <mxGeometry x="210" y="270" width="120" height="80" as="geometry" />
        </mxCell>
        <mxCell id="fDXr2WGKgPIdpTgefnLf-6" style="edgeStyle=orthogonalEdgeStyle;rounded=0;orthogonalLoop=1;jettySize=auto;html=1;entryX=0;entryY=0.5;entryDx=0;entryDy=0;" edge="1" parent="1" source="fDXr2WGKgPIdpTgefnLf-1" target="fDXr2WGKgPIdpTgefnLf-3">
          <mxGeometry relative="1" as="geometry" />
        </mxCell>
        <mxCell id="fDXr2WGKgPIdpTgefnLf-11" value="Add Song" style="ellipse;whiteSpace=wrap;html=1;" vertex="1" parent="1">
          <mxGeometry x="210" y="380" width="120" height="80" as="geometry" />
        </mxCell>
      </root>
    </mxGraphModel>
  </diagram>
</mxfile>
